<svg xmlns="http://www.w3.org/2000/svg" width="34" height="34" viewBox="0 0 34 34" fill="none">
  <path d="M12.5 12.5H12.515M21.5 21.5H21.515M23 11L11 23M10.0007 4.72804C11.2064 4.63182 12.3511 4.15769 13.2717 3.37313C15.4201 1.54229 18.5799 1.54229 20.7283 3.37313C21.6489 4.15769 22.7936 4.63182 23.9993 4.72804C26.8131 4.95258 29.0474 7.18692 29.272 10.0007C29.3682 11.2064 29.8423 12.3511 30.6269 13.2717C32.4577 15.4201 32.4577 18.5799 30.6269 20.7283C29.8423 21.6489 29.3682 22.7936 29.272 23.9993C29.0474 26.8131 26.8131 29.0474 23.9993 29.272C22.7936 29.3682 21.6489 29.8423 20.7283 30.6269C18.5799 32.4577 15.4201 32.4577 13.2717 30.6269C12.3511 29.8423 11.2064 29.3682 10.0007 29.272C7.18692 29.0474 4.95258 26.8131 4.72804 23.9993C4.63182 22.7936 4.15769 21.6489 3.37313 20.7283C1.54229 18.5799 1.54229 15.4201 3.37313 13.2717C4.15769 12.3511 4.63182 11.2064 4.72804 10.0007C4.95258 7.18692 7.18692 4.95258 10.0007 4.72804ZM13.25 12.5C13.25 12.9142 12.9142 13.25 12.5 13.25C12.0858 13.25 11.75 12.9142 11.75 12.5C11.75 12.0858 12.0858 11.75 12.5 11.75C12.9142 11.75 13.25 12.0858 13.25 12.5ZM22.25 21.5C22.25 21.9142 21.9142 22.25 21.5 22.25C21.0858 22.25 20.75 21.9142 20.75 21.5C20.75 21.0858 21.0858 20.75 21.5 20.75C21.9142 20.75 22.25 21.0858 22.25 21.5Z" stroke="#F66A13" stroke-width="3" stroke-linecap="round" stroke-linejoin="round"/>
</svg>