<svg width="26" height="26" viewBox="0 0 26 26" fill="none" xmlns="http://www.w3.org/2000/svg">
<path d="M9.7 9.7H9.711M16.3 16.3H16.311M17.4 8.6L8.6 17.4M7.86714 4.00056C8.75136 3.93 9.59079 3.5823 10.2659 3.00696C11.8414 1.66435 14.1586 1.66435 15.7341 3.00696C16.4092 3.5823 17.2486 3.93 18.1329 4.00056C20.1963 4.16523 21.8348 5.80374 21.9994 7.86714C22.07 8.75136 22.4177 9.59079 22.993 10.2659C24.3357 11.8414 24.3357 14.1586 22.993 15.7341C22.4177 16.4092 22.07 17.2486 21.9994 18.1329C21.8348 20.1963 20.1963 21.8348 18.1329 21.9994C17.2486 22.07 16.4092 22.4177 15.7341 22.993C14.1586 24.3357 11.8414 24.3357 10.2659 22.993C9.59079 22.4177 8.75136 22.07 7.86714 21.9994C5.80374 21.8348 4.16523 20.1963 4.00056 18.1329C3.93 17.2486 3.5823 16.4092 3.00696 15.7341C1.66435 14.1586 1.66435 11.8414 3.00696 10.2659C3.5823 9.59079 3.93 8.75136 4.00056 7.86714C4.16523 5.80374 5.80374 4.16523 7.86714 4.00056ZM10.25 9.7C10.25 10.0038 10.0038 10.25 9.7 10.25C9.39624 10.25 9.15 10.0038 9.15 9.7C9.15 9.39624 9.39624 9.15 9.7 9.15C10.0038 9.15 10.25 9.39624 10.25 9.7ZM16.85 16.3C16.85 16.6038 16.6038 16.85 16.3 16.85C15.9962 16.85 15.75 16.6038 15.75 16.3C15.75 15.9962 15.9962 15.75 16.3 15.75C16.6038 15.75 16.85 15.9962 16.85 16.3Z" stroke="#307D7A" stroke-width="3" stroke-linecap="round" stroke-linejoin="round"/>
</svg>
