<svg width="25" height="23" viewBox="0 0 25 23" fill="none" xmlns="http://www.w3.org/2000/svg">
<path d="M21.0292 4.00483C20.6916 3.12485 20.0787 2.36481 19.2732 1.82743C18.4676 1.29005 17.5084 1.00123 16.525 1H8.475C7.49164 1.00123 6.53237 1.29005 5.72685 1.82743C4.92132 2.36481 4.30837 3.12485 3.97084 4.00483L1.38334 10.786C1.12885 11.4539 0.999114 12.159 1 12.8696V13.7826C1.00171 14.4882 1.17579 15.1837 1.50846 15.8141C1.84113 16.4446 2.32326 16.9925 2.91667 17.4147C2.91667 17.422 2.91667 17.4275 2.91667 17.4348V19.2609C2.91667 19.9873 3.21957 20.684 3.75874 21.1977C4.29791 21.7114 5.02917 22 5.79167 22C6.55417 22 7.28543 21.7114 7.8246 21.1977C8.36377 20.684 8.66667 19.9873 8.66667 19.2609V18.3478H16.3333V19.2609C16.3333 19.9873 16.6362 20.684 17.1754 21.1977C17.7146 21.7114 18.4458 22 19.2083 22C19.9708 22 20.7021 21.7114 21.2413 21.1977C21.7804 20.684 22.0833 19.9873 22.0833 19.2609V17.4348C22.0833 17.4275 22.0833 17.422 22.0833 17.4147C22.6767 16.9925 23.1589 16.4446 23.4915 15.8141C23.8242 15.1837 23.9983 14.4882 24 13.7826V12.8696C24.001 12.1593 23.8712 11.4544 23.6167 10.7869L21.0292 4.00483ZM5.77442 4.62935C5.97705 4.10176 6.34457 3.64604 6.82744 3.32361C7.31032 3.00118 7.88534 2.82754 8.475 2.82609H16.525C17.115 2.82716 17.6904 3.00063 18.1737 3.32309C18.6569 3.64555 19.0248 4.10147 19.2275 4.62935L21.3243 10.1304H3.67471L5.77442 4.62935ZM6.75 19.2609C6.75 19.503 6.64903 19.7353 6.46931 19.9065C6.28959 20.0777 6.04584 20.1739 5.79167 20.1739C5.5375 20.1739 5.29375 20.0777 5.11403 19.9065C4.9343 19.7353 4.83334 19.503 4.83334 19.2609V18.2565C5.14875 18.3175 5.46982 18.3481 5.79167 18.3478H6.75V19.2609ZM20.1667 19.2609C20.1667 19.503 20.0657 19.7353 19.886 19.9065C19.7063 20.0777 19.4625 20.1739 19.2083 20.1739C18.9542 20.1739 18.7104 20.0777 18.5307 19.9065C18.351 19.7353 18.25 19.503 18.25 19.2609V18.3478H19.2083C19.5302 18.3481 19.8512 18.3175 20.1667 18.2565V19.2609ZM22.0833 13.7826C22.0833 14.5091 21.7804 15.2058 21.2413 15.7195C20.7021 16.2332 19.9708 16.5217 19.2083 16.5217H5.79167C5.02917 16.5217 4.29791 16.2332 3.75874 15.7195C3.21957 15.2058 2.91667 14.5091 2.91667 13.7826V12.8696C2.92058 12.5621 2.95946 12.256 3.03263 11.9565H4.83334V12.8696C4.83334 13.1117 4.9343 13.344 5.11403 13.5152C5.29375 13.6864 5.5375 13.7826 5.79167 13.7826C6.04584 13.7826 6.28959 13.6864 6.46931 13.5152C6.64903 13.344 6.75 13.1117 6.75 12.8696V11.9565H18.25V12.8696C18.25 13.1117 18.351 13.344 18.5307 13.5152C18.7104 13.6864 18.9542 13.7826 19.2083 13.7826C19.4625 13.7826 19.7063 13.6864 19.886 13.5152C20.0657 13.344 20.1667 13.1117 20.1667 12.8696V11.9565H21.9674C22.0406 12.256 22.0795 12.5621 22.0833 12.8696V13.7826Z" fill="#307D7A" stroke="#307D7A"/>
</svg>
