<svg width="25" height="22" viewBox="0 0 25 22" fill="none" xmlns="http://www.w3.org/2000/svg">
<path d="M16.7 6C16.7 5.07003 16.7 4.60504 16.5927 4.22354C16.3014 3.18827 15.4523 2.37962 14.3653 2.10222C13.9647 2 13.4765 2 12.5 2C11.5235 2 11.0353 2 10.6347 2.10222C9.54768 2.37962 8.6986 3.18827 8.40733 4.22354C8.3 4.60504 8.3 5.07003 8.3 6M5.36 20H19.64C20.8161 20 21.4042 20 21.8534 19.782C22.2485 19.5903 22.5698 19.2843 22.7711 18.908C23 18.4802 23 17.9201 23 16.8V9.2C23 8.07989 23 7.51984 22.7711 7.09202C22.5698 6.71569 22.2485 6.40973 21.8534 6.21799C21.4042 6 20.8161 6 19.64 6H5.36C4.18389 6 3.59583 6 3.14662 6.21799C2.75148 6.40973 2.43022 6.71569 2.22889 7.09202C2 7.51984 2 8.07989 2 9.2V16.8C2 17.9201 2 18.4802 2.22889 18.908C2.43022 19.2843 2.75148 19.5903 3.14662 19.782C3.59583 20 4.18389 20 5.36 20Z" stroke="#307D7A" stroke-width="3" stroke-linecap="round" stroke-linejoin="round"/>
</svg>
