<svg width="28" height="24" viewBox="0 0 28 24" fill="none" xmlns="http://www.w3.org/2000/svg">
<path d="M26 7.54808V12.1323M11.9 4.68295H7.76C5.74381 4.68295 4.73571 4.68295 3.96563 5.05769C3.28825 5.38731 2.73752 5.91328 2.39237 6.56021C2 7.29567 2 8.25845 2 10.184L2 11.5592C2 12.6272 2 13.1612 2.18269 13.5825C2.42628 14.1441 2.89349 14.5903 3.48156 14.8229C3.92261 14.9974 4.48174 14.9974 5.6 14.9974V19.8681C5.6 20.1342 5.6 20.2672 5.61156 20.3793C5.72379 21.4675 6.6253 22.3285 7.76476 22.4357C7.8821 22.4467 8.0214 22.4467 8.3 22.4467C8.57861 22.4467 8.71791 22.4467 8.83524 22.4357C9.97471 22.3285 10.8762 21.4675 10.9884 20.3793C11 20.2672 11 20.1342 11 19.8681V14.9974H11.9C14.0197 14.9974 16.6127 16.0826 18.6132 17.1241C19.7802 17.7316 20.3637 18.0354 20.7459 17.9907C21.1003 17.9493 21.3682 17.7973 21.576 17.52C21.8 17.2209 21.8 16.6225 21.8 15.4257V4.25465C21.8 3.05785 21.8 2.45944 21.576 2.16037C21.3682 1.88304 21.1003 1.73107 20.7459 1.68962C20.3637 1.64491 19.7802 1.9487 18.6132 2.55629C16.6127 3.59777 14.0197 4.68295 11.9 4.68295Z" stroke="#307D7A" stroke-width="3" stroke-linecap="round" stroke-linejoin="round"/>
</svg>
